<svg width="800" height="800" viewBox="0 0 800 800" fill="none" xmlns="http://www.w3.org/2000/svg">
<path d="M400 366.666C391.16 366.666 382.681 370.178 376.43 376.43C370.179 382.681 366.667 391.159 366.667 400V500C366.667 508.84 370.179 517.319 376.43 523.57C382.681 529.821 391.16 533.333 400 533.333C408.841 533.333 417.319 529.821 423.571 523.57C429.822 517.319 433.334 508.84 433.334 500V400C433.334 391.159 429.822 382.681 423.571 376.43C417.319 370.178 408.841 366.666 400 366.666ZM400 266.666C393.408 266.666 386.963 268.621 381.481 272.284C376 275.947 371.727 281.153 369.204 287.244C366.682 293.335 366.021 300.037 367.308 306.503C368.594 312.969 371.768 318.908 376.43 323.57C381.092 328.232 387.031 331.406 393.497 332.693C399.963 333.979 406.666 333.319 412.757 330.796C418.847 328.273 424.053 324 427.716 318.519C431.379 313.037 433.334 306.593 433.334 300C433.334 291.159 429.822 282.681 423.571 276.43C417.319 270.178 408.841 266.666 400 266.666ZM400 66.6665C356.226 66.6665 312.881 75.2884 272.439 92.04C231.997 108.792 195.251 133.345 164.298 164.298C101.786 226.81 66.6671 311.594 66.6671 400C66.3757 476.971 93.0268 551.618 142 611L75.3338 677.666C70.7085 682.354 67.5753 688.306 66.3295 694.773C65.0837 701.239 65.7811 707.929 68.3337 714C71.1023 719.997 75.5906 725.037 81.2286 728.479C86.8667 731.922 93.4004 733.611 100 733.333H400C488.406 733.333 573.191 698.214 635.703 635.702C698.215 573.19 733.334 488.405 733.334 400C733.334 311.594 698.215 226.81 635.703 164.298C573.191 101.785 488.406 66.6665 400 66.6665ZM400 666.666H180.334L211.334 635.666C214.483 632.579 216.989 628.898 218.706 624.835C220.422 620.773 221.315 616.41 221.334 612C221.209 603.208 217.614 594.821 211.334 588.666C167.687 545.068 140.506 487.684 134.423 426.293C128.341 364.901 143.732 303.3 177.975 251.984C212.217 200.668 263.193 162.812 322.218 144.866C381.242 126.919 444.662 129.993 501.674 153.564C558.686 177.134 605.762 219.742 634.882 274.13C664.001 328.517 673.363 391.318 661.371 451.833C649.38 512.349 616.777 566.835 569.118 606.008C521.459 645.181 461.693 666.618 400 666.666Z" fill="white"/>
</svg>
