<svg width="800" height="800" viewBox="0 0 800 800" fill="none" xmlns="http://www.w3.org/2000/svg">
<path fill-rule="evenodd" clip-rule="evenodd" d="M316.667 650C335.077 650 350 635.077 350 616.667C350 598.257 335.077 583.333 316.667 583.333C298.257 583.333 283.333 598.257 283.333 616.667C283.333 635.077 298.257 650 316.667 650ZM316.667 683.333C353.487 683.333 383.333 653.487 383.333 616.667C383.333 579.847 353.487 550 316.667 550C279.848 550 250 579.847 250 616.667C250 653.487 279.848 683.333 316.667 683.333Z" fill="white"/>
<path fill-rule="evenodd" clip-rule="evenodd" d="M550 650C568.41 650 583.333 635.077 583.333 616.667C583.333 598.257 568.41 583.333 550 583.333C531.59 583.333 516.666 598.257 516.666 616.667C516.666 635.077 531.59 650 550 650ZM550 683.333C586.82 683.333 616.666 653.487 616.666 616.667C616.666 579.847 586.82 550 550 550C513.18 550 483.333 579.847 483.333 616.667C483.333 653.487 513.18 683.333 550 683.333Z" fill="white"/>
<path fill-rule="evenodd" clip-rule="evenodd" d="M100 133.333C100 124.129 107.462 116.667 116.667 116.667H183.333C190.589 116.667 197.011 121.361 199.214 128.274L312.331 483.333H566.667C575.87 483.333 583.333 490.797 583.333 500C583.333 509.203 575.87 516.667 566.667 516.667H300.149C292.893 516.667 286.471 511.973 284.268 505.06L171.151 150H116.667C107.462 150 100 142.538 100 133.333Z" fill="white"/>
<path d="M283.333 433.333L200 200H644.57C655.643 200 663.64 210.598 660.597 221.245L603.453 421.247C601.41 428.4 594.87 433.333 587.427 433.333H283.333Z" fill="white"/>
</svg>
