<svg width="800" height="800" viewBox="0 0 800 800" fill="none" xmlns="http://www.w3.org/2000/svg">
<g clip-path="url(#clip0_325_197)">
<path d="M133.333 433.333C151.743 433.333 166.667 418.409 166.667 400C166.667 381.59 151.743 366.667 133.333 366.667C114.924 366.667 100 381.59 100 400C100 418.409 114.924 433.333 133.333 433.333Z" fill="white"/>
<path d="M668.666 366.667H264.666C247.361 366.667 233.333 380.695 233.333 398V402C233.333 419.305 247.361 433.333 264.666 433.333H668.666C685.971 433.333 700 419.305 700 402V398C700 380.695 685.971 366.667 668.666 366.667Z" fill="white"/>
<path d="M668.667 533.333H131.333C114.028 533.333 100 547.362 100 564.667V568.667C100 585.972 114.028 600 131.333 600H668.667C685.972 600 700 585.972 700 568.667V564.667C700 547.362 685.972 533.333 668.667 533.333Z" fill="white"/>
<path d="M668.667 200H131.333C114.028 200 100 214.028 100 231.333V235.333C100 252.638 114.028 266.667 131.333 266.667H668.667C685.972 266.667 700 252.638 700 235.333V231.333C700 214.028 685.972 200 668.667 200Z" fill="white"/>
</g>
<defs>
<clipPath id="clip0_325_197">
<rect width="800" height="800" fill="white"/>
</clipPath>
</defs>
</svg>
