<svg width="800" height="800" viewBox="0 0 800 800" fill="none" xmlns="http://www.w3.org/2000/svg">
<path d="M500 266.667H300V500L400 466.666L500 500V266.667Z" stroke="#5E7256" stroke-width="66.6667" stroke-linecap="round" stroke-linejoin="round"/>
<path d="M700 266.667V666.666C700 675.507 696.488 683.986 690.237 690.237C683.986 696.488 675.507 700 666.667 700H133.333C124.493 700 116.014 696.488 109.763 690.237C103.512 683.986 100 675.507 100 666.666V266.667" stroke="#5E7256" stroke-width="66.6667" stroke-linecap="round" stroke-linejoin="round"/>
<path d="M100 266.667L257 109.667C263.209 103.509 271.589 100.037 280.333 100H519.667C528.411 100.037 536.791 103.509 543 109.667L700 266.667H100Z" stroke="#5E7256" stroke-width="66.6667" stroke-linecap="round" stroke-linejoin="round"/>
</svg>
