<svg width="800" height="800" viewBox="0 0 800 800" fill="none" xmlns="http://www.w3.org/2000/svg">
<path d="M387 400C380.846 399.438 374.726 398.548 368.667 397.333C331.657 389.018 298.673 368.13 275.334 338.227C251.995 308.324 239.744 271.255 240.667 233.333V49.9998C278.273 49.8493 315.538 57.1341 350.319 71.4355C385.1 85.7369 416.71 106.773 443.333 133.333C471.826 161.696 493.98 195.779 508.333 233.333C515.722 252.463 518.196 273.139 515.531 293.472C512.865 313.805 505.145 333.145 493.075 349.724C481.006 366.303 464.973 379.591 446.442 388.374C427.911 397.157 407.474 401.154 387 400Z" stroke="white" stroke-width="63.6667" stroke-miterlimit="10"/>
<path d="M559.333 50V241.333C559.41 263.665 554.781 285.762 545.748 306.186C536.716 326.61 523.482 344.902 506.91 359.87C490.337 374.839 470.797 386.149 449.563 393.063C428.328 399.977 405.875 402.341 383.667 400C343.441 394.819 306.562 374.916 280.152 344.135C253.742 313.354 239.675 273.879 240.667 233.333V50H559.333Z" stroke="white" stroke-width="63.6667" stroke-miterlimit="10"/>
<path d="M400 783.333V400.667" stroke="white" stroke-width="63.6667" stroke-miterlimit="10"/>
<path d="M542.667 464.333H591.333V481C591.333 518.838 576.302 555.126 549.547 581.881C522.792 608.636 486.504 623.667 448.667 623.667H400V607C400 569.163 415.031 532.875 441.786 506.12C468.541 479.364 504.829 464.333 542.667 464.333Z" stroke="white" stroke-width="63.6667" stroke-miterlimit="10"/>
<path d="M400 687.667H351.333C313.496 687.667 277.208 672.636 250.453 645.881C223.698 619.126 208.667 582.838 208.667 545V528.334H257.333C295.171 528.334 331.459 543.365 358.214 570.12C384.969 596.875 400 633.163 400 671V687.667Z" stroke="white" stroke-width="63.6667" stroke-miterlimit="10"/>
</svg>
